<svg width="1280" height="720" xmlns="http://www.w3.org/2000/svg" xmlns:xlink="http://www.w3.org/1999/xlink" overflow="hidden"><g><rect x="0" y="0" width="1280" height="720" fill="#FFFFFF"/><text font-family="Aptos,Aptos_MSFontService,sans-serif" font-weight="700" font-size="24" transform="translate(56.1514 127)">Test Engine Extension Model</text><text font-family="Aptos,Aptos_MSFontService,sans-serif" font-weight="700" font-size="24" transform="translate(56.1514 156)">Power Automate</text><rect x="442" y="181" width="396" height="80" stroke="#042433" stroke-width="2" stroke-miterlimit="8" fill="#00B050"/><text fill="#FFFFFF" font-family="Aptos,Aptos_MSFontService,sans-serif" font-weight="400" font-size="24" transform="translate(581.947 229)">Test Engine</text><text font-family="Aptos,Aptos_MSFontService,sans-serif" font-weight="400" font-size="24" transform="translate(67.0678 456)">[Export(</text><text font-family="Aptos,Aptos_MSFontService,sans-serif" font-weight="400" font-size="24" transform="translate(147.568 456)">typeof</text><text font-family="Aptos,Aptos_MSFontService,sans-serif" font-weight="400" font-size="24" transform="translate(212.734 456)">(</text><text font-family="Aptos,Aptos_MSFontService,sans-serif" font-weight="700" font-size="24" transform="translate(219.734 456)">IUserManager</text><text font-family="Aptos,Aptos_MSFontService,sans-serif" font-weight="400" font-size="24" transform="translate(371.861 456)">))]</text><text font-family="Aptos,Aptos_MSFontService,sans-serif" font-weight="400" font-size="24" transform="translate(452.042 456)">[Export(</text><text font-family="Aptos,Aptos_MSFontService,sans-serif" font-weight="400" font-size="24" transform="translate(532.542 456)">typeof</text><text font-family="Aptos,Aptos_MSFontService,sans-serif" font-weight="400" font-size="24" transform="translate(597.709 456)">(</text><text font-family="Aptos,Aptos_MSFontService,sans-serif" font-weight="700" font-size="24" transform="translate(604.709 456)">ITestWebProvider</text><text font-family="Aptos,Aptos_MSFontService,sans-serif" font-weight="400" font-size="24" transform="translate(795.855 456)">))]</text><text font-family="Aptos,Aptos_MSFontService,sans-serif" font-weight="400" font-size="24" transform="translate(856.151 456)">[Export(</text><text font-family="Aptos,Aptos_MSFontService,sans-serif" font-weight="400" font-size="24" transform="translate(936.651 456)">typeof</text><text font-family="Aptos,Aptos_MSFontService,sans-serif" font-weight="400" font-size="24" transform="translate(1001.82 456)">(</text><text font-family="Aptos,Aptos_MSFontService,sans-serif" font-weight="700" font-size="24" transform="translate(1008.82 456)">ITestEngineModule</text><text font-family="Aptos,Aptos_MSFontService,sans-serif" font-weight="400" font-size="24" transform="translate(1215.7 456)">))]</text><rect x="442" y="276" width="396" height="91" stroke="#042433" stroke-width="2" stroke-miterlimit="8" fill="#404040"/><text fill="#FFFFFF" font-family="Aptos,Aptos_MSFontService,sans-serif" font-weight="400" font-size="24" transform="translate(556.243 314)">Security Checks</text><text fill="#FFFFFF" font-family="Aptos,Aptos_MSFontService,sans-serif" font-weight="400" font-size="24" transform="translate(470.51 343)">(Signed Assemblies, Allow/Deny)</text><text font-family="Aptos,Aptos_MSFontService,sans-serif" font-weight="400" font-size="24" transform="translate(72.3197 517)">local</text><text font-family="Aptos,Aptos_MSFontService,sans-serif" font-weight="400" font-size="24" transform="translate(72.3197 546)">browser</text><text font-family="Aptos,Aptos_MSFontService,sans-serif" font-weight="400" font-size="24" transform="translate(452.042 510)">Workflow (</text><text font-family="Aptos,Aptos_MSFontService,sans-serif" font-weight="400" font-size="24" transform="translate(561.042 510)">json</text><text font-family="Aptos,Aptos_MSFontService,sans-serif" font-weight="400" font-size="24" transform="translate(609.542 510)">or</text><text font-family="Aptos,Aptos_MSFontService,sans-serif" font-weight="400" font-size="24" transform="translate(635.542 510)">url</text><text font-family="Aptos,Aptos_MSFontService,sans-serif" font-weight="400" font-size="24" transform="translate(663.042 510)">)</text><text font-family="Aptos,Aptos_MSFontService,sans-serif" font-weight="400" font-size="24" transform="translate(856.151 512)">MockAction</text><text font-family="Aptos,Aptos_MSFontService,sans-serif" font-weight="400" font-size="24" transform="translate(979.318 512)">()</text><text font-family="Aptos,Aptos_MSFontService,sans-serif" font-weight="400" font-size="24" transform="translate(856.151 541)">OpenWorkflow</text><text font-family="Aptos,Aptos_MSFontService,sans-serif" font-weight="400" font-size="24" transform="translate(1010.15 541)">()</text><text font-family="Aptos,Aptos_MSFontService,sans-serif" font-weight="400" font-size="24" transform="translate(856.151 570)">TriggerWorkflow</text><text font-family="Aptos,Aptos_MSFontService,sans-serif" font-weight="400" font-size="24" transform="translate(1021.23 570)">()</text><path d="M215.191 424.161 215.94 419.065 216.986 414.076 218.656 409.42 221.237 405.554 221.445 405.341 224.778 408.608 224.723 408.664 224.997 408.327 222.696 411.773 222.952 411.265 221.433 415.5 221.52 415.191 220.522 419.954 220.547 419.814 219.809 424.839ZM235.079 399.042 235.177 399.026 239.434 398.477 243.811 397.941 247.82 397.471 252.093 397.059 253.816 396.926 254.174 401.579 252.474 401.71 252.519 401.706 248.291 402.114 248.339 402.109 244.36 402.575 244.372 402.574 240.009 403.108 240.024 403.106 235.81 403.65 235.881 403.64 235.819 403.65ZM267.892 396.229 268.03 396.224 272.737 396.081 278.138 395.943 284.307 395.809 286.594 395.767 286.682 400.432 284.408 400.475 278.243 400.609 278.252 400.609 272.862 400.746 272.873 400.746 268.178 400.888 268.192 400.888 268.062 400.892ZM300.604 395.53 303.728 395.487 308.569 395.435 319.284 395.355 319.319 400.021 308.608 400.102 308.615 400.102 303.792 400.153 300.668 400.196ZM333.296 395.294 344.499 395.265 351.965 395.254 351.972 399.92 344.511 399.931 333.308 399.961ZM365.966 395.238 373.135 395.232 384.633 395.224 384.636 399.891 373.139 399.898 365.97 399.904ZM398.633 395.213 403.57 395.209 417.298 395.19 417.305 399.857 403.574 399.876 398.637 399.88ZM431.296 395.158 434.136 395.151 448.945 395.094 449.954 395.088 449.982 399.755 448.963 399.761 434.147 399.818 431.307 399.825ZM463.948 395.004 476.575 394.896 476.566 394.896 482.605 394.821 482.662 399.488 476.62 399.562 463.988 399.671ZM496.591 394.609 500.156 394.546 500.143 394.546 505.217 394.43 505.206 394.43 509.897 394.3 509.883 394.301 515.213 394.121 515.371 398.785 510.033 398.965 505.33 399.095 500.244 399.212 496.673 399.275ZM529.164 393.547 533.255 393.344 533.233 393.345 539.626 392.968 539.601 392.97 545.391 392.566 545.363 392.568 547.719 392.376 548.098 397.027 545.729 397.22 539.913 397.626 533.497 398.004 529.395 398.208ZM561.531 390.972 567.263 390.219 567.197 390.229 573.899 389.153 573.852 389.161 579.851 388.07 580.686 392.661 574.663 393.756 567.904 394.842 562.139 395.599ZM593.348 385.268 596.741 384.327 596.37 384.465 601.824 381.897 603.811 386.12 598.179 388.771 594.594 389.765ZM596.976 379.501 612.5 377.5 604.786 391.12Z" fill="#595959"/><path d="M-2.30858 46.661-1.56033 41.5654-0.514343 36.5763 1.15599 31.9196 3.73704 28.0536 3.94502 27.8414 7.27749 31.1083 7.2225 31.1644 7.49686 30.8265 5.1962 34.2726 5.45193 33.7648 3.93263 38.0004 4.02 37.6914 3.02161 42.4535 3.04651 42.3137 2.30858 47.339ZM17.5792 21.542 17.6768 21.5264 21.9339 20.977 26.311 20.4408 30.3195 19.971 34.5932 19.5587 36.3163 19.4261 36.6743 24.0791 34.9738 24.2099 35.0188 24.206 30.7914 24.6138 30.839 24.6087 26.8602 25.075 26.8723 25.0736 22.5088 25.6081 22.5237 25.6062 18.3097 26.1501 18.3807 26.1398 18.3186 26.1498ZM50.3923 18.7288 50.5296 18.7238 55.2372 18.581 60.6376 18.4432 66.8071 18.3093 69.0944 18.2665 69.1817 22.9323 66.9084 22.9749 60.7433 23.1087 60.7522 23.1085 55.3618 23.246 55.373 23.2457 50.6781 23.3881 50.6923 23.3876 50.5621 23.3923ZM83.1042 18.0296 86.2278 17.987 91.0689 17.935 101.784 17.8546 101.819 22.5212 91.1077 22.6015 91.1152 22.6015 86.2915 22.6532 83.1678 22.6958ZM115.795 17.7943 126.999 17.7645 134.465 17.7534 134.472 22.4201 127.011 22.4311 115.808 22.4609ZM148.466 17.7376 155.635 17.7316 167.133 17.7243 167.136 22.3909 155.639 22.3982 148.47 22.4042ZM181.133 17.7133 186.07 17.7092 199.798 17.6899 199.805 22.3565 186.074 22.3759 181.137 22.38ZM213.796 17.6579 216.635 17.6511 231.445 17.5942 232.454 17.5883 232.482 22.2549 231.463 22.2609 216.647 22.3178 213.807 22.3246ZM246.448 17.5043 259.075 17.3958 259.066 17.3959 265.105 17.3213 265.162 21.9877 259.12 22.0622 246.488 22.1708ZM279.091 17.1087 282.656 17.046 282.643 17.0463 287.717 16.9297 287.706 16.93 292.397 16.8003 292.383 16.8007 297.713 16.621 297.87 21.285 292.533 21.465 287.83 21.595 282.744 21.7119 279.173 21.7747ZM311.664 16.0465 315.755 15.844 315.733 15.8452 322.126 15.4679 322.101 15.4695 327.891 15.0658 327.863 15.0679 330.218 14.8755 330.598 19.5267 328.229 19.7202 322.413 20.1258 315.997 20.5044 311.895 20.7075ZM344.031 13.4722 349.762 12.7189 349.697 12.7285 356.399 11.6526 356.352 11.6607 362.351 10.5697 363.186 15.1611 357.163 16.2564 350.404 17.3415 344.639 18.0991ZM375.848 7.76797 379.241 6.82718 378.87 6.96463 384.324 4.39734 386.311 8.6195 380.679 11.2713 377.094 12.265ZM379.476 2.00058 395 0 387.286 13.6196Z" fill="#595959" transform="matrix(-1 0 0 1 1076.5 375.5)"/><path d="M2.33333-5.09659e-06 2.33337 18.6667-2.33329 18.6667-2.33333 5.09659e-06ZM2.3334 32.6667 2.33341 36.3986-2.33325 36.3986-2.33326 32.6667ZM7.00007 34.0653 0.000104987 48.0653-6.99993 34.0653Z" fill="#595959" transform="matrix(1 0 0 -1 651.5 430.565)"/><text font-family="Aptos,Aptos_MSFontService,sans-serif" font-weight="400" font-size="24" transform="translate(861.15 631)">NuGet Dependancies</text></g></svg>